<?xml version="1.0" encoding="utf-8"?>
<!-- Generator: Adobe Illustrator 18.0.0, SVG Export Plug-In . SVG Version: 6.00 Build 0)  -->
<!DOCTYPE svg PUBLIC "-//W3C//DTD SVG 1.1//EN" "http://www.w3.org/Graphics/SVG/1.1/DTD/svg11.dtd">
<svg version="1.1" id="Layer_1" xmlns="http://www.w3.org/2000/svg" xmlns:xlink="http://www.w3.org/1999/xlink" x="0px" y="0px"
	 viewBox="0 0 144 144" enable-background="new 0 0 144 144" xml:space="preserve">
<g>
	<path d="M104.4,36.2c7.5,0,13.5-6.1,13.5-13.5c0-7.5-6.1-13.5-13.5-13.5c-7.5,0-13.5,6-13.5,13.5C90.8,30.1,96.9,36.2,104.4,36.2"
		/>
	<path d="M49,71.7L38.7,86c-0.1,0.1-0.1,0.3-0.2,0.4c-2.3,0.2-4.7-0.5-6.5-2.3L17.3,69.5c-2.2-2.2-5.7-2.2-7.9,0
		c-2.2,2.2-2.2,5.7,0,7.9L24,92c3.8,3.8,8.7,5.6,13.6,5.6c4.9,0,9.9-1.9,13.6-5.6l6.6-6.6C54.6,82,49.7,75.8,49,71.7"/>
	<path d="M135.4,36.6c-2.2-2.2-5.7-2.2-7.9,0l-11.3,11.3c-1.6,1.6-3.5,2.4-5.8,2.4c-2.1,0-4-0.8-5.5-2.4l-22.9-23
		c-7.5-7.5-19.7-7.5-27.3,0L40.6,39c-2.2,2.2-2.2,5.7,0,7.9c2.2,2.2,5.7,2.2,7.9,0l14.2-14.2c2.9-2.9,7.5-3.1,10.7-0.6L59.6,45.8
		c-9.5,9.5-9.5,24.9,0,34.4c0.1,0.2,16.2,16.3,16.2,16.3c0.5,0.5,0.9,1,1.2,1.6l0.9,2c0.7,2.7,0.1,5.7-2.1,7.9l-14.3,14.3
		c-2.2,2.2-2.2,5.7,0,7.9c1.1,1.1,2.5,1.6,3.9,1.6c1.4,0,2.9-0.5,4-1.6l14.3-14.3c6.2-6.2,7.3-15.5,3.3-22.8L75.9,71.4
		c-0.9-2.2-0.4-4.8,1.5-6.4v0l14.5-14.5l5.1,5.1c3.5,3.6,8.3,5.7,13.4,5.7h0.2c5.1,0,10-2,13.6-5.6l11.3-11.3
		C137.6,42.3,137.6,38.7,135.4,36.6"/>
</g>
</svg>
