<svg xmlns="http://www.w3.org/2000/svg" version="1.1" preserveAspectRatio="none" viewBox="0 0 26 26"><path style="fill: white;" stroke-width="0" d="M 7.6001 21.9995 L 14 26 L 14 23.765 C 19.5017 23.2601 23.8125 18.6331 23.8125 13 C 23.8125 10.0664 22.6387 7.4092 20.7412 5.4604 L 18.0469 7.918 C 19.354 9.2163 20.1641 11.0132 20.1641 13 C 20.1641 16.6151 17.4818 19.6035 14 20.09 L 14 18 L 7.6001 21.9995 ZM 18.3994 4.0005 L 12 0 L 12 2.235 C 6.4979 2.7398 2.1875 7.3665 2.1875 13 C 2.1875 15.9346 3.3618 18.5928 5.2603 20.5415 L 7.9551 18.084 C 6.6465 16.7856 5.8354 14.9878 5.8354 13 C 5.8354 9.3838 8.5174 6.3918 12 5.905 L 12 8 L 18.3994 4.0005 Z"></path></svg>